HIERARCHY
ROOT Hips
{
	OFFSET 0.000000 100.481300 0.000000
	CHANNELS 6 Xposition Yposition Zposition Xrotation Yrotation Zrotation
	JOINT Spine
	{
		OFFSET -0.279200 12.230698 -2.892100
		CHANNELS 3 Xrotation Yrotation Zrotation
		JOINT Spine1
		{
			OFFSET -0.325700 14.269203 -3.374200
			CHANNELS 3 Xrotation Yrotation Zrotation
			JOINT Spine2
			{
				OFFSET -0.372300 16.307602 -0.352600
				CHANNELS 3 Xrotation Yrotation Zrotation
				JOINT Neck
				{
					OFFSET -0.418800 17.814194 8.416900
					CHANNELS 3 Xrotation Yrotation Zrotation
					JOINT Head
					{
						OFFSET 0.000000 7.031097 3.806800
						CHANNELS 3 Xrotation Yrotation Zrotation
						JOINT HeadTop_End
						{
							OFFSET 0.000000 24.646606 12.978600
							CHANNELS 3 Xrotation Yrotation Zrotation
							End Site
							{
								OFFSET 0.000000 27.854965 0.000000
							}
						}
					}
				}
				JOINT LeftShoulder
				{
					OFFSET 16.952999 14.495407 -7.737500
					CHANNELS 3 Xrotation Yrotation Zrotation
					JOINT LeftArm
					{
						OFFSET 9.308998 -2.777710 0.208600
						CHANNELS 3 Xrotation Yrotation Zrotation
						JOINT LeftForeArm
						{
							OFFSET 29.972298 0.000000 0.000000
							CHANNELS 3 Xrotation Yrotation Zrotation
							JOINT LeftHand
							{
								OFFSET 26.026505 0.000000 0.000000
								CHANNELS 3 Xrotation Yrotation Zrotation
								JOINT LeftHandThumb1
								{
									OFFSET 12.240501 -7.147949 9.207150
									CHANNELS 3 Xrotation Yrotation Zrotation
									JOINT LeftHandThumb2
									{
										OFFSET 4.138618 -2.389435 2.389433
										CHANNELS 3 Xrotation Yrotation Zrotation
										JOINT LeftHandThumb3
										{
											OFFSET 2.726913 -1.574387 1.574386
											CHANNELS 3 Xrotation Yrotation Zrotation
											JOINT LeftHandThumb4
											{
												OFFSET 3.941010 -2.275345 2.275342
												CHANNELS 3 Xrotation Yrotation Zrotation
												End Site
												{
													OFFSET -0.005798 5.087799 0.009903
												}
											}
										}
									}
								}
								JOINT LeftHandIndex1
								{
									OFFSET 24.424698 -1.985611 5.953459
									CHANNELS 3 Xrotation Yrotation Zrotation
									JOINT LeftHandIndex2
									{
										OFFSET 6.426697 0.000000 0.000000
										CHANNELS 3 Xrotation Yrotation Zrotation
										JOINT LeftHandIndex3
										{
											OFFSET 5.337898 0.000000 0.000000
											CHANNELS 3 Xrotation Yrotation Zrotation
											JOINT LeftHandIndex4
											{
												OFFSET 4.409401 0.000000 0.000000
												CHANNELS 3 Xrotation Yrotation Zrotation
												End Site
												{
													OFFSET 0.000000 4.409363 0.014373
												}
											}
										}
									}
								}
								JOINT LeftHandMiddle1
								{
									OFFSET 23.810104 0.000000 0.000000
									CHANNELS 3 Xrotation Yrotation Zrotation
									JOINT LeftHandMiddle2
									{
										OFFSET 7.176498 0.000000 0.000000
										CHANNELS 3 Xrotation Yrotation Zrotation
										JOINT LeftHandMiddle3
										{
											OFFSET 6.774902 0.000000 0.000000
											CHANNELS 3 Xrotation Yrotation Zrotation
											JOINT LeftHandMiddle4
											{
												OFFSET 5.403328 0.000000 0.000000
												CHANNELS 3 Xrotation Yrotation Zrotation
												End Site
												{
													OFFSET -0.027702 5.403244 0.017414
												}
											}
										}
									}
								}
								JOINT LeftHandRing1
								{
									OFFSET 22.908401 -0.839279 -6.020567
									CHANNELS 3 Xrotation Yrotation Zrotation
									JOINT LeftHandRing2
									{
										OFFSET 6.337502 0.000000 0.000000
										CHANNELS 3 Xrotation Yrotation Zrotation
										JOINT LeftHandRing3
										{
											OFFSET 5.779297 0.000000 0.000000
											CHANNELS 3 Xrotation Yrotation Zrotation
											JOINT LeftHandRing4
											{
												OFFSET 4.965698 0.000000 0.000000
												CHANNELS 3 Xrotation Yrotation Zrotation
												End Site
												{
													OFFSET 0.000000 4.965668 0.016186
												}
											}
										}
									}
								}
								JOINT LeftHandPinky1
								{
									OFFSET 20.037003 -1.530319 -10.950146
									CHANNELS 3 Xrotation Yrotation Zrotation
									JOINT LeftHandPinky2
									{
										OFFSET 5.254700 0.000000 0.000000
										CHANNELS 3 Xrotation Yrotation Zrotation
										JOINT LeftHandPinky3
										{
											OFFSET 4.810204 0.000000 0.000000
											CHANNELS 3 Xrotation Yrotation Zrotation
											JOINT LeftHandPinky4
											{
												OFFSET 3.647202 0.000000 0.000000
												CHANNELS 3 Xrotation Yrotation Zrotation
												End Site
												{
													OFFSET 0.000000 3.647186 0.011889
												}
											}
										}
									}
								}
							}
						}
					}
				}
				JOINT RightShoulder
				{
					OFFSET -15.141001 14.495407 -7.737500
					CHANNELS 3 Xrotation Yrotation Zrotation
					JOINT RightArm
					{
						OFFSET -9.308998 -2.777710 0.208500
						CHANNELS 3 Xrotation Yrotation Zrotation
						JOINT RightForeArm
						{
							OFFSET -29.972300 0.000000 0.000000
							CHANNELS 3 Xrotation Yrotation Zrotation
							JOINT RightHand
							{
								OFFSET -26.026505 0.000000 0.000000
								CHANNELS 3 Xrotation Yrotation Zrotation
								JOINT RightHandThumb1
								{
									OFFSET -12.240601 -7.148026 9.207092
									CHANNELS 3 Xrotation Yrotation Zrotation
									JOINT RightHandThumb2
									{
										OFFSET -4.138618 -2.389435 2.389433
										CHANNELS 3 Xrotation Yrotation Zrotation
										JOINT RightHandThumb3
										{
											OFFSET -2.726974 -1.574417 1.574421
											CHANNELS 3 Xrotation Yrotation Zrotation
											JOINT RightHandThumb4
											{
												OFFSET -3.941010 -2.275345 2.275343
												CHANNELS 3 Xrotation Yrotation Zrotation
												End Site
												{
													OFFSET 0.005814 5.087799 0.009927
												}
											}
										}
									}
								}
								JOINT RightHandIndex1
								{
									OFFSET -24.424698 -1.985657 5.953444
									CHANNELS 3 Xrotation Yrotation Zrotation
									JOINT RightHandIndex2
									{
										OFFSET -6.426697 0.000000 0.000000
										CHANNELS 3 Xrotation Yrotation Zrotation
										JOINT RightHandIndex3
										{
											OFFSET -5.337898 0.000000 0.000000
											CHANNELS 3 Xrotation Yrotation Zrotation
											JOINT RightHandIndex4
											{
												OFFSET -4.409401 0.000000 0.000000
												CHANNELS 3 Xrotation Yrotation Zrotation
												End Site
												{
													OFFSET 0.000000 4.409363 0.014408
												}
											}
										}
									}
								}
								JOINT RightHandMiddle1
								{
									OFFSET -23.810097 0.000000 0.000000
									CHANNELS 3 Xrotation Yrotation Zrotation
									JOINT RightHandMiddle2
									{
										OFFSET -7.176498 0.000000 0.000000
										CHANNELS 3 Xrotation Yrotation Zrotation
										JOINT RightHandMiddle3
										{
											OFFSET -6.774902 0.000000 0.000000
											CHANNELS 3 Xrotation Yrotation Zrotation
											JOINT RightHandMiddle4
											{
												OFFSET -5.403328 0.000000 0.000000
												CHANNELS 3 Xrotation Yrotation Zrotation
												End Site
												{
													OFFSET 0.027702 5.403244 0.017457
												}
											}
										}
									}
								}
								JOINT RightHandRing1
								{
									OFFSET -22.908302 -0.839325 -6.020576
									CHANNELS 3 Xrotation Yrotation Zrotation
									JOINT RightHandRing2
									{
										OFFSET -6.337502 0.000000 0.000000
										CHANNELS 3 Xrotation Yrotation Zrotation
										JOINT RightHandRing3
										{
											OFFSET -5.779297 0.000000 0.000000
											CHANNELS 3 Xrotation Yrotation Zrotation
											JOINT RightHandRing4
											{
												OFFSET -4.965698 0.000000 0.000000
												CHANNELS 3 Xrotation Yrotation Zrotation
												End Site
												{
													OFFSET 0.000000 4.965668 0.016226
												}
											}
										}
									}
								}
								JOINT RightHandPinky1
								{
									OFFSET -20.037003 -1.530334 -10.950259
									CHANNELS 3 Xrotation Yrotation Zrotation
									JOINT RightHandPinky2
									{
										OFFSET -5.254700 0.000000 0.000000
										CHANNELS 3 Xrotation Yrotation Zrotation
										JOINT RightHandPinky3
										{
											OFFSET -4.810204 0.000000 0.000000
											CHANNELS 3 Xrotation Yrotation Zrotation
											JOINT RightHandPinky4
											{
												OFFSET -3.647202 0.000000 0.000000
												CHANNELS 3 Xrotation Yrotation Zrotation
												End Site
												{
													OFFSET 0.000000 3.647186 0.011917
												}
											}
										}
									}
								}
							}
						}
					}
				}
			}
		}
	}
	JOINT LeftUpLeg
	{
		OFFSET 15.427100 -6.655098 0.678600
		CHANNELS 3 Xrotation Yrotation Zrotation
		JOINT LeftLeg
		{
			OFFSET 4.081073 -39.591068 13.024000
			CHANNELS 3 Xrotation Yrotation Zrotation
			JOINT LeftFoot
			{
				OFFSET -4.081074 -37.707932 -15.979700
				CHANNELS 3 Xrotation Yrotation Zrotation
				JOINT LeftToeBase
				{
					OFFSET 5.346399 -15.068900 20.645000
					CHANNELS 3 Xrotation Yrotation Zrotation
					JOINT LeftToe_End
					{
						OFFSET 2.754700 0.931300 11.300900
						CHANNELS 3 Xrotation Yrotation Zrotation
						End Site
						{
							OFFSET 0.000000 11.669021 0.000000
						}
					}
				}
			}
		}
	}
	JOINT RightUpLeg
	{
		OFFSET -15.569500 -6.655098 0.678600
		CHANNELS 3 Xrotation Yrotation Zrotation
		JOINT RightLeg
		{
			OFFSET -4.081825 -39.591045 13.023800
			CHANNELS 3 Xrotation Yrotation Zrotation
			JOINT RightFoot
			{
				OFFSET 4.081824 -37.707954 -15.979600
				CHANNELS 3 Xrotation Yrotation Zrotation
				JOINT RightToeBase
				{
					OFFSET -5.346400 -15.068900 20.645000
					CHANNELS 3 Xrotation Yrotation Zrotation
					JOINT RightToe_End
					{
						OFFSET -2.754700 0.931300 11.300900
						CHANNELS 3 Xrotation Yrotation Zrotation
						End Site
						{
							OFFSET 0.000000 11.669021 0.000000
						}
					}
				}
			}
		}
	}
}
MOTION
Frames: 4
Frame Time: 0.033333
2.187957 72.842537 -1.691548 -5.388627 -46.493504 -0.533308 9.140040 6.806009 -1.456957 3.349495 1.058308 -1.380266 3.359226 1.052275 -1.361345 0.573486 12.093723 4.001345 7.061334 22.235035 -4.170122 -0.000001 -0.000000 -0.000000 0.768408 2.624707 -7.165078 -49.965013 6.255888 -51.770375 0.000094 -108.361115 0.000096 1.191201 -7.149095 -14.878606 -6.141222 -11.690800 -6.761679 9.914110 42.595512 3.409883 -0.422811 8.108098 27.509108 0.000001 -0.000004 0.000001 0.255318 3.378219 -45.814337 5.654091 5.847751 -88.067441 2.162142 4.544811 -50.866386 -0.000001 0.000000 -0.000003 -0.461472 3.841590 -39.722686 6.450750 5.820362 -95.892844 2.182892 4.561564 -51.127733 -0.000002 -0.000002 -0.000002 0.469725 4.966825 -39.799454 8.181048 5.368617 -113.503004 3.200487 5.218117 -63.022982 0.000002 0.000000 -0.000000 -3.762430 9.063692 -45.253825 5.342539 5.829009 -85.005297 8.716837 5.103329 -119.369181 0.000001 0.000002 0.000004 4.029561 14.340329 -4.381279 -49.348288 28.415088 80.241254 0.000189 106.498523 -0.000194 -10.078122 17.371070 9.631444 -7.341119 13.749650 7.412348 9.855806 -44.489079 -3.903241 -0.115775 -14.513092 -28.973874 -0.000000 -0.000001 -0.000004 -0.124373 -2.384785 45.108857 4.500576 -4.654537 88.071143 1.723225 -3.618379 50.920098 -0.000000 -0.000001 0.000003 -0.761619 -2.932903 39.031055 5.133894 -4.632761 95.881670 1.739743 -3.631699 51.181367 0.000001 -0.000001 -0.000001 0.154760 -4.068816 39.122671 6.509732 -4.273595 113.462884 2.549580 -4.153925 63.067330 -0.000000 0.000001 -0.000001 -4.198880 -8.025520 44.637786 4.252920 -4.639642 85.014805 6.935964 -4.062631 119.322271 -0.000001 0.000000 0.000000 -34.207445 5.081632 20.336352 56.774657 -7.603517 3.648958 -20.185140 -7.063943 -17.238045 -1.592338 0.000012 -0.000002 -0.000000 -0.000002 -0.000000 -19.434069 -8.966056 -34.648641 56.990426 -2.845165 -4.779747 -26.297292 -10.326693 26.231907 -0.013008 -0.000027 -0.000000 -0.000000 -0.000001 -0.000000 
2.192425 72.840584 -1.707926 -5.401977 -46.449733 -0.529666 9.286767 7.125244 -1.406559 2.746355 1.018307 -1.140243 2.760096 1.011452 -1.120037 0.317126 12.685051 4.279879 8.018142 21.167139 -4.159746 0.000001 0.000000 -0.000001 0.944211 3.094623 -7.925456 -51.823538 5.578271 -51.586844 0.000060 -107.327434 0.000047 1.607135 -7.451217 -15.346945 -6.141224 -11.690799 -6.761686 9.914096 42.595508 3.409888 -0.422813 8.108102 27.509103 0.000002 -0.000000 -0.000001 0.255316 3.378221 -45.814337 5.654089 5.847750 -88.067441 2.162141 4.544813 -50.866386 0.000001 -0.000001 -0.000003 -0.461473 3.841595 -39.722683 6.450750 5.820361 -95.892844 2.182890 4.561564 -51.127733 -0.000001 -0.000001 -0.000000 0.469723 4.966829 -39.799451 8.181052 5.368617 -113.503004 3.200485 5.218116 -63.022982 -0.000000 -0.000000 0.000000 -3.762430 9.063691 -45.253821 5.342539 5.829009 -85.005297 8.716835 5.103329 -119.369181 -0.000000 -0.000000 -0.000001 3.518943 13.660909 -4.882842 -49.020814 27.766107 81.917908 0.000131 106.228184 -0.000135 -9.210722 17.484837 9.167383 -7.341122 13.749649 7.412348 9.855814 -44.489086 -3.903240 -0.115777 -14.513093 -28.973874 0.000000 -0.000003 0.000002 -0.124373 -2.384789 45.108857 4.500576 -4.654540 88.071143 1.723225 -3.618379 50.920102 0.000001 -0.000002 -0.000003 -0.761620 -2.932908 39.031058 5.133890 -4.632764 95.881663 1.739745 -3.631697 51.181360 0.000002 0.000004 -0.000001 0.154760 -4.068816 39.122671 6.509729 -4.273597 113.462884 2.549578 -4.153925 63.067330 -0.000002 0.000000 -0.000002 -4.198880 -8.025518 44.637786 4.252915 -4.639642 85.014798 6.935967 -4.062630 119.322271 0.000001 -0.000000 0.000000 -34.236887 5.085592 20.309204 56.771207 -7.626124 3.664248 -20.145453 -7.075308 -17.226191 -1.595570 -0.000002 0.000002 0.000000 -0.000002 0.000000 -19.414275 -8.978863 -34.666024 57.002645 -2.864437 -4.771127 -26.304908 -10.334434 26.240492 -0.013008 -0.000027 0.000000 0.000000 -0.000001 0.000000 
2.195108 72.839005 -1.714690 -5.400176 -46.432097 -0.526813 9.420034 7.435518 -1.366543 2.187715 0.989899 -0.915630 2.202831 0.982771 -0.894152 0.084654 13.220557 4.538680 8.920925 20.138152 -4.130237 0.000001 0.000000 -0.000001 1.117178 3.546355 -8.633310 -53.487013 4.935495 -51.502997 0.000158 -106.358073 0.000157 1.988600 -7.706153 -15.869263 -6.141223 -11.690799 -6.761681 9.914106 42.595508 3.409882 -0.422815 8.108101 27.509103 -0.000003 0.000002 -0.000001 0.255316 3.378222 -45.814337 5.654091 5.847751 -88.067441 2.162142 4.544813 -50.866386 -0.000000 -0.000001 -0.000001 -0.461474 3.841591 -39.722683 6.450753 5.820359 -95.892844 2.182892 4.561567 -51.127729 -0.000001 0.000001 0.000002 0.469723 4.966828 -39.799444 8.181047 5.368615 -113.502998 3.200486 5.218119 -63.022982 -0.000001 0.000002 0.000001 -3.762429 9.063691 -45.253821 5.342537 5.829010 -85.005297 8.716835 5.103329 -119.369181 -0.000002 0.000001 0.000000 3.036125 13.027198 -5.371408 -48.713712 27.172823 83.457084 0.000133 105.988273 -0.000134 -8.345374 17.548100 8.775684 -7.341121 13.749652 7.412352 9.855814 -44.489079 -3.903252 -0.115775 -14.513097 -28.973874 0.000001 -0.000001 -0.000000 -0.124375 -2.384786 45.108857 4.500579 -4.654541 88.071143 1.723225 -3.618379 50.920098 -0.000002 -0.000000 -0.000002 -0.761621 -2.932906 39.031055 5.133888 -4.632762 95.881663 1.739743 -3.631698 51.181360 0.000001 0.000000 0.000003 0.154760 -4.068815 39.122671 6.509731 -4.273593 113.462884 2.549582 -4.153924 63.067330 -0.000001 0.000001 -0.000001 -4.198880 -8.025519 44.637789 4.252915 -4.639642 85.014805 6.935965 -4.062629 119.322271 -0.000001 0.000000 -0.000000 -34.255472 5.085944 20.300775 56.771655 -7.634006 3.672680 -20.132990 -7.078569 -17.222805 -1.594045 -0.000004 0.000006 0.000000 -0.000002 -0.000000 -19.408631 -8.980186 -34.667622 57.008017 -2.876363 -4.766530 -26.306549 -10.338601 26.246247 -0.013008 -0.000027 0.000000 -0.000000 -0.000002 0.000000 
2.195108 72.839005 -1.714690 -5.400176 -46.432097 -0.526813 9.420034 7.435518 -1.366543 2.187715 0.989899 -0.915630 2.202831 0.982771 -0.894152 0.084654 13.220557 4.538680 8.920925 20.138152 -4.130237 0.000001 0.000000 -0.000001 1.117178 3.546355 -8.633310 -53.487013 4.935495 -51.502997 0.000158 -106.358073 0.000157 1.988600 -7.706153 -15.869263 -6.141223 -11.690799 -6.761681 9.914106 42.595508 3.409882 -0.422815 8.108101 27.509103 -0.000003 0.000002 -0.000001 0.255316 3.378222 -45.814337 5.654091 5.847751 -88.067441 2.162142 4.544813 -50.866386 -0.000000 -0.000001 -0.000001 -0.461474 3.841591 -39.722683 6.450753 5.820359 -95.892844 2.182892 4.561567 -51.127729 -0.000001 0.000001 0.000002 0.469723 4.966828 -39.799444 8.181047 5.368615 -113.502998 3.200486 5.218119 -63.022982 -0.000001 0.000002 0.000001 -3.762429 9.063691 -45.253821 5.342537 5.829010 -85.005297 8.716835 5.103329 -119.369181 -0.000002 0.000001 0.000000 3.036125 13.027198 -5.371408 -48.713712 27.172823 83.457084 0.000133 105.988273 -0.000134 -8.345374 17.548100 8.775684 -7.341121 13.749652 7.412352 9.855814 -44.489079 -3.903252 -0.115775 -14.513097 -28.973874 0.000001 -0.000001 -0.000000 -0.124375 -2.384786 45.108857 4.500579 -4.654541 88.071143 1.723225 -3.618379 50.920098 -0.000002 -0.000000 -0.000002 -0.761621 -2.932906 39.031055 5.133888 -4.632762 95.881663 1.739743 -3.631698 51.181360 0.000001 0.000000 0.000003 0.154760 -4.068815 39.122671 6.509731 -4.273593 113.462884 2.549582 -4.153924 63.067330 -0.000001 0.000001 -0.000001 -4.198880 -8.025519 44.637789 4.252915 -4.639642 85.014805 6.935965 -4.062629 119.322271 -0.000001 0.000000 -0.000000 -34.255472 5.085944 20.300775 56.771655 -7.634006 3.672680 -20.132990 -7.078569 -17.222805 -1.594045 -0.000004 0.000006 0.000000 -0.000002 -0.000000 -19.408631 -8.980186 -34.667622 57.008017 -2.876363 -4.766530 -26.306549 -10.338601 26.246247 -0.013008 -0.000027 0.000000 -0.000000 -0.000002 0.000000 
